<svg xmlns="http://www.w3.org/2000/svg" viewBox="0 0 854.19 532.51"><defs><style>.cls-1{fill:#1e3a8a;}.cls-2{fill:#1a3166;}.cls-3{fill:#93a1c7;}</style></defs><g id="Calque_2" data-name="Calque 2"><g id="Layer_1" data-name="Layer 1"><path class="cls-1" d="M641.33,8.32c-79.06-23.88-159.77,5-205.58,73.77L427.1,95l-8.61-12.93C372.61,13.35,292.06-15.74,212.84,8.35c-79,23.92-130.15,92.79-130.15,175.4S133.8,335.19,212.84,359.13s159.74-5,205.65-73.74l8.61-12.95,8.65,12.95c1.93,2.89,3.9,5.69,5.95,8.43,35.3,47.41,88.12,73.6,144.57,73.6a190.44,190.44,0,0,0,55.09-8.26c79-24,130.14-92.8,130.14-175.41S720.41,32.27,641.33,8.32ZM336.62,230.81c-25.76,38.59-66,43-95.27,34.13s-60.25-34.77-60.25-81.19,31.14-72.43,60.28-81.23a89.74,89.74,0,0,1,26-3.88c24.19,0,50.52,10,69.23,38L368,183.72Zm276.19,34.13c-29,8.88-69.43,4.49-95.19-34.13l-16.83-25.25-14.56-21.84,31.39-47.05c25.73-38.61,65.92-43.06,95.19-34.15s60.3,34.79,60.3,81.23S642,256.14,612.81,264.94Z"/><path class="cls-2" d="M500.79,205.56,441.7,293.82c-2.05-2.74-4-5.54-5.95-8.43l-8.65-12.95,59.13-88.72Z"/><path class="cls-2" d="M427.1,95,368,183.25c-2.05-2.73-4-5.54-5.95-8.43l-8.65-12.94,59.13-88.72Z"/><path class="cls-3" d="M649.37,181.44H596.51a7,7,0,0,0-1.29-3.5l-36-50.44c-4-5.64,2.93-12.57,8.57-8.54l78.58,56.31A7.11,7.11,0,0,1,649.37,181.44Z"/><path class="cls-1" d="M649.37,181.44a7.12,7.12,0,0,1-2.73,5.24l-78.55,61.66c-5.48,4.31-12.75-2.42-8.88-8.23L595.34,186a7.1,7.1,0,0,0,1.17-4.6Z"/><path class="cls-3" d="M203.43,177.39h52.85a7.14,7.14,0,0,1,1.3-3.5l36-50.44c4-5.63-2.93-12.57-8.56-8.53L206.4,171.23A7.09,7.09,0,0,0,203.43,177.39Z"/><path class="cls-1" d="M203.43,177.39a7.12,7.12,0,0,0,2.73,5.24L284.7,244.3c5.49,4.31,12.76-2.43,8.89-8.23L257.46,182a7.15,7.15,0,0,1-1.18-4.61Z"/><path class="cls-3" d="M0,532.51V433.44H31.21q20.81,0,31.7,12.63T73.8,483q0,24.27-10.89,36.9t-31.7,12.64Zm20.93-19.45H31.21q10.89,0,16.28-7.49T52.88,483q0-15.23-5.39-22.66t-16.28-7.43H20.93Z"/><path class="cls-3" d="M91.51,532.51V433.44h64.64v18.08H112.44V474.3H150v17.59H112.44v22.54h42.47v18.08Z"/><path class="cls-3" d="M189.46,433.44l18.33,83.83h2.1l18.33-83.83H248l-22.42,99.07H190.7l-22.41-99.07Z"/><path class="cls-3" d="M264.88,532.51V433.44h64.64v18.08H285.8V474.3h37.53v17.59H285.8v22.54h42.48v18.08Z"/><path class="cls-3" d="M346,532.51V433.44H378.8L398,516.78h2.1L398.86,479V433.44h18.21v99.07H384.25l-19.19-83.34H363l1.24,37.77v45.57Z"/><path class="cls-3" d="M433.41,532.51V512.69h24.4V453.25h-24.4V433.44H503v19.81H478.61v59.44H503v19.82Z"/><path class="cls-3" d="M544.49,532.51V453.25h-28V433.44h76.78v19.81h-28v79.26Z"/><path class="cls-3" d="M623.25,433.44,640,468l1.37,8.79h2.22l1.24-8.79,17.09-34.55h20.81l-30.47,61.3v37.77H631.29V494.74L601,433.44Z"/><path class="cls-1" d="M692.34,532.51V510.46h24.27v-55H692.34v-22h71.83v22H739.89v55h24.28v22.05Z"/><path class="cls-1" d="M803.3,532.51v-77H775.68v-22h78.51v22H826.58v77Z"/></g></g></svg>